<svg width="132" height="358" viewBox="0 0 132 358" fill="none" xmlns="http://www.w3.org/2000/svg">
<path d="M71 316.5L69.5001 316.486L71 316.5ZM82.5 250.5L83.8013 251.246L82.5 250.5ZM119.5 0L114.166 16.4789L131.104 12.8584L119.5 0ZM18 263.5C18 268.825 22.0296 271.946 26.9497 274.327C29.4528 275.538 32.3515 276.637 35.3769 277.764C38.424 278.899 41.618 280.068 44.807 281.44C51.1886 284.187 57.3899 287.684 61.9785 293.088C66.533 298.452 69.5971 305.812 69.5001 316.486L72.5 316.514C72.6029 305.188 69.3296 297.111 64.2653 291.146C59.2352 285.222 52.5364 281.501 45.993 278.685C42.7196 277.276 39.4448 276.078 36.4239 274.953C33.3813 273.82 30.6128 272.767 28.2565 271.626C23.4579 269.304 21 266.925 21 263.5H18ZM69.5001 316.486C69.3787 329.835 64.4212 339.262 57.3656 345.416C50.2752 351.601 40.9599 354.569 32.032 354.75C23.0793 354.932 14.7245 352.312 9.49778 347.59C6.90012 345.243 5.08179 342.387 4.29844 339.082C3.51528 335.777 3.74223 331.92 5.40292 327.531L2.59707 326.469C0.757758 331.33 0.437831 335.801 1.37929 339.774C2.32054 343.745 4.49832 347.116 7.48659 349.816C13.4317 355.188 22.6082 357.943 32.093 357.75C41.6026 357.556 51.6311 354.399 59.3376 347.677C67.0788 340.925 72.3713 330.665 72.5 316.514L69.5001 316.486ZM5.40292 327.531C12.2098 309.541 26.0459 300.022 41.2515 290.197C56.3846 280.42 72.8405 270.364 83.8013 251.246L81.1987 249.754C70.6595 268.136 54.8654 277.83 39.6235 287.678C24.4541 297.478 9.79018 307.459 2.59707 326.469L5.40292 327.531ZM83.8013 251.246C92.3872 236.271 106.728 200.549 116.753 156.712C126.78 112.863 132.532 60.7203 123.798 12.935L120.847 13.4743C129.479 60.7041 123.809 112.401 113.828 156.043C103.846 199.696 89.5921 235.114 81.1987 249.754L83.8013 251.246Z" fill="black"/>
</svg>
